# xmcd
#
# Track frame offsets:
#	150
#	22747
#	39757
#	58545
#	80177
#	96735
#	115090
#	135625
#	156075
#	178105
#	202675
#	222632
#	243475
#	257700
#	273212
#	294990
#
# Disc length: 4453 seconds
#
# Revision: 1
# Processed by: cddbd v1.5.1PL0 Copyright (c) Steve Scherf et al.
# Submitted via: CDex 1.50Beta5
#
DISCID=e0116310
DTITLE=さまざまなアーティスト - TVベストヒット・コレクション
DYEAR=1900
DGENRE=Pop
TTITLE0=プリンセス・プリンセス/DIAMONDS
TTITLE1=プリンセス・プリンセス/世界でいちばん熱い夏
TTITLE2=米米CLUB/浪漫飛行
TTITLE3=米米CLUB/君がいるだけで
TTITLE4=石井明美/CHA・CHA・CHA
TTITLE5=TUBE/シーズン・イン・ザ・ザン
TTITLE6=レベッカ/フレンズ
TTITLE7=LOOK/シャイニン・オン君が哀しい
TTITLE8=TM NETWORK/Resistnce
TTITLE9=TM NETWORK/LOVE TRAIN
TTITLE10=渡辺美里/My Revolution
TTITLE11=松田聖子/SWEET MEMORIES
TTITLE12=シャネルズ/ランナウェイ
TTITLE13=ラッツ&スター/め組のひと
TTITLE14=鈴木聖美withラッツ&スター/ロンリー・チャップリン
TTITLE15=X/Say Anything
EXTD=
EXTT0=
EXTT1=
EXTT2=
EXTT3=
EXTT4=
EXTT5=
EXTT6=
EXTT7=
EXTT8=
EXTT9=
EXTT10=
EXTT11=
EXTT12=
EXTT13=
EXTT14=
EXTT15=
PLAYORDER=
